<svg xmlns="http://www.w3.org/2000/svg" xmlns:xlink="http://www.w3.org/1999/xlink" width="500" zoomAndPan="magnify" viewBox="0 0 375 374.999991" height="500" preserveAspectRatio="xMidYMid meet" version="1.0"><defs><g/></defs><g fill="#004aad" fill-opacity="1"><g transform="translate(0.0000045, 234.852334)"><g><path d="M 56.121094 -19.539062 L 41.722656 -40.988281 C 64.640625 -46.863281 71.984375 -57.148438 71.984375 -68.460938 C 71.984375 -78.304688 66.992188 -91.230469 38.636719 -91.230469 C 29.382812 -91.230469 15.71875 -90.644531 3.671875 -91.230469 L 3.671875 -89.027344 C 12.046875 -88.144531 13.664062 -83.589844 13.664062 -79.773438 L 13.664062 -9.550781 C 13.664062 -4.40625 11.164062 -2.792969 3.671875 -2.203125 L 3.671875 0 C 13.808594 -0.441406 24.09375 -0.441406 34.230469 0 L 34.230469 -2.203125 C 26.738281 -2.792969 24.238281 -4.40625 24.238281 -9.550781 L 24.238281 -37.609375 L 28.792969 -38.34375 L 31.144531 -38.785156 L 45.984375 -17.480469 C 54.355469 -5.4375 62.730469 1.46875 75.953125 1.175781 L 78.15625 -1.617188 C 73.308594 -1.910156 63.171875 -8.960938 56.121094 -19.539062 Z M 24.238281 -40.695312 L 24.238281 -88.144531 L 39.226562 -88.144531 C 53.914062 -88.144531 60.234375 -79.917969 60.234375 -67.871094 C 60.234375 -55.53125 53.914062 -45.394531 29.675781 -41.574219 Z M 24.238281 -40.695312 "/></g></g></g><g fill="#004aad" fill-opacity="1"><g transform="translate(71.542849, 234.852334)"><g><path d="M 91.671875 -8.519531 L 91.671875 -83.003906 C 91.671875 -86.824219 94.460938 -88.144531 101.515625 -89.027344 L 101.515625 -91.230469 C 95.199219 -90.789062 87.703125 -90.789062 81.242188 -91.230469 L 54.355469 -17.1875 L 24.828125 -91.230469 C 17.1875 -90.789062 10.722656 -90.789062 3.230469 -91.230469 L 3.230469 -89.027344 C 10.722656 -88.144531 14.101562 -86.96875 14.101562 -82.710938 L 14.101562 -8.519531 C 14.101562 -3.527344 11.457031 -3.230469 2.203125 -2.203125 L 2.203125 0 C 11.3125 -0.441406 20.714844 -0.441406 30.117188 0 L 30.117188 -2.203125 C 21.15625 -3.230469 18.070312 -3.527344 18.070312 -8.519531 L 18.070312 -80.066406 L 49.800781 0 L 51.566406 0 L 81.242188 -80.066406 L 81.242188 -8.519531 C 81.242188 -3.527344 78.449219 -3.085938 70.808594 -2.203125 L 70.808594 0 C 80.945312 -0.441406 91.964844 -0.441406 101.957031 0 L 101.957031 -2.203125 C 94.460938 -3.085938 91.671875 -3.527344 91.671875 -8.519531 Z M 91.671875 -8.519531 "/></g></g></g><path stroke-linecap="butt" transform="matrix(1.956984, 0, 0, 1.95997, 163.976742, 144.503751)" fill="none" stroke-linejoin="miter" d="M -0.0000915859 0.0000794599 L 107.667205 0.0000794599 " stroke="#004aad" stroke-width="1" stroke-opacity="1" stroke-miterlimit="4"/><path stroke-linecap="butt" transform="matrix(1.9597, 0, 0, 1.95997, 152.503163, 233.619448)" fill="none" stroke-linejoin="miter" d="M 0.000379121 0.000839753 L 113.520206 0.000839753 " stroke="#004aad" stroke-width="1" stroke-opacity="1" stroke-miterlimit="4"/></svg>