<svg xmlns="http://www.w3.org/2000/svg" xmlns:xlink="http://www.w3.org/1999/xlink" width="500" zoomAndPan="magnify" viewBox="0 0 375 374.999991" height="500" preserveAspectRatio="xMidYMid meet" version="1.0"><defs><g/></defs><rect x="-37.5" width="450" fill="#ffffff" y="-37.499999" height="449.999989" fill-opacity="1"/><rect x="-37.5" width="450" fill="#ffffff" y="-37.499999" height="449.999989" fill-opacity="1"/><rect x="-37.5" width="450" fill="#f1f1f1" y="-37.499999" height="449.999989" fill-opacity="1"/><g fill="#000000" fill-opacity="1"><g transform="translate(117.574574, 165.258438)"><g><path d="M -3.011719 -3.867188 L -2.253906 -5.847656 L 2.765625 -7.199219 L 3.242188 -8.433594 L -2.003906 -7.015625 C -1.632812 -8.53125 -2.09375 -10.101562 -3.75 -10.738281 C -5.261719 -11.316406 -6.96875 -10.78125 -7.878906 -8.421875 L -9.164062 -5.070312 L 0.519531 -1.347656 L 0.90625 -2.363281 Z M -3.941406 -4.226562 L -7.824219 -5.71875 L -6.949219 -7.992188 C -6.242188 -9.835938 -5.0625 -10.0625 -4.109375 -9.695312 C -3.132812 -9.320312 -2.402344 -8.230469 -3.074219 -6.476562 Z M -3.941406 -4.226562 "/></g></g></g><g fill="#000000" fill-opacity="1"><g transform="translate(124.346065, 149.871373)"><g><path d="M -3.398438 -13.375 L -4.011719 -12.480469 L 1.261719 -8.855469 C 2.855469 -7.761719 3.230469 -6.316406 2.214844 -4.84375 C 1.308594 -3.519531 -0.105469 -2.980469 -1.972656 -4.265625 L -7.195312 -7.847656 L -7.808594 -6.953125 L -2.542969 -3.339844 C -0.523438 -1.953125 1.609375 -2.15625 3.035156 -4.230469 C 4.429688 -6.261719 3.972656 -8.3125 1.8125 -9.796875 Z M -3.398438 -13.375 "/></g></g></g><g fill="#000000" fill-opacity="1"><g transform="translate(135.077937, 135.830296)"><g><path d="M -5.867188 -8.675781 L 1.074219 -0.964844 L 3.9375 -3.546875 C 5.394531 -4.859375 6.097656 -6.632812 4.761719 -8.117188 C 4.226562 -8.707031 2.949219 -9.375 1.542969 -8.644531 C 2.191406 -10.101562 1.4375 -11.117188 1.125 -11.460938 C -0.0078125 -12.722656 -1.691406 -12.433594 -3.101562 -11.167969 Z M -1.984375 -5.96875 L -4.40625 -8.65625 L -2.503906 -10.367188 C -1.617188 -11.164062 -0.453125 -11.570312 0.390625 -10.636719 C 1.070312 -9.878906 1.125 -8.769531 -0.144531 -7.625 Z M 1.207031 -2.421875 L -1.339844 -5.25 L 0.601562 -6.996094 C 1.496094 -7.800781 2.894531 -8.523438 3.878906 -7.433594 C 4.871094 -6.328125 4.128906 -5.054688 3.292969 -4.300781 Z M 1.207031 -2.421875 "/></g></g></g><g fill="#000000" fill-opacity="1"><g transform="translate(148.482415, 125.120089)"><g><path d="M 2.171875 -1.296875 L -3.140625 -10.203125 L -4.074219 -9.648438 L 1.238281 -0.738281 Z M 2.171875 -1.296875 "/></g></g></g><g fill="#000000" fill-opacity="1"><g transform="translate(158.771811, 119.690508)"><g/></g></g><g fill="#000000" fill-opacity="1"><g transform="translate(169.155784, 115.810474)"><g><path d="M 11.046875 -1.808594 L 12.105469 -1.984375 L 10.429688 -12.222656 L 8.886719 -11.96875 L 6.53125 -2.574219 L 1.265625 -10.71875 L -0.253906 -10.46875 L 1.425781 -0.234375 L 2.484375 -0.40625 L 1.058594 -9.113281 L 6.261719 -1.027344 L 7.230469 -1.183594 L 9.597656 -10.582031 L 9.609375 -10.582031 Z M 11.046875 -1.808594 "/></g></g></g><g fill="#000000" fill-opacity="1"><g transform="translate(189.917358, 113.633511)"><g><path d="M 8.734375 -8.625 L 8.824219 -9.628906 L 2.359375 -10.203125 L 1.4375 0.128906 L 7.957031 0.707031 L 8.046875 -0.292969 L 2.609375 -0.777344 L 2.945312 -4.527344 L 7.867188 -4.089844 L 7.953125 -5.089844 L 3.03125 -5.527344 L 3.351562 -9.105469 Z M 8.734375 -8.625 "/></g></g></g><g fill="#000000" fill-opacity="1"><g transform="translate(205.845952, 115.763981)"><g><path d="M 9.378906 3.160156 L 12.691406 -6.671875 L 11.671875 -7.015625 L 8.90625 1.195312 L 5.871094 -8.96875 L 4.679688 -9.371094 L 1.367188 0.460938 L 2.386719 0.804688 L 5.207031 -7.570312 L 8.273438 2.785156 Z M 9.378906 3.160156 "/></g></g></g><g fill="#000000" fill-opacity="1"><g transform="translate(223.116184, 122.644223)"><g><path d="M 11.703125 -3.707031 L 12.238281 -4.5625 L 6.742188 -8.015625 L 1.222656 0.769531 L 6.765625 4.25 L 7.300781 3.398438 L 2.679688 0.492188 L 4.679688 -2.691406 L 8.863281 -0.0625 L 9.398438 -0.914062 L 5.214844 -3.542969 L 7.125 -6.585938 Z M 11.703125 -3.707031 "/></g></g></g><g fill="#000000" fill-opacity="1"><g transform="translate(236.334698, 131.923396)"><g><path d="M 2.945312 3.050781 C 4.425781 4.511719 6.289062 4.414062 7.359375 3.328125 C 7.84375 2.835938 8.054688 2.226562 8.078125 1.578125 C 8.109375 0.734375 7.738281 -0.207031 7.140625 -1.1875 C 6.304688 -2.566406 6.203125 -3.390625 6.863281 -4.0625 C 7.628906 -4.835938 8.835938 -4.589844 9.628906 -3.808594 C 10.613281 -2.84375 10.515625 -1.820312 10.15625 -0.964844 L 11.179688 -0.683594 C 11.714844 -1.886719 11.59375 -3.308594 10.363281 -4.519531 C 9.136719 -5.726562 7.300781 -6.050781 6.054688 -4.785156 C 5.039062 -3.757812 5.085938 -2.425781 6.246094 -0.5625 C 7.078125 0.78125 7.273438 1.828125 6.511719 2.601562 C 5.75 3.375 4.53125 3.179688 3.660156 2.324219 C 2.652344 1.328125 2.679688 0.242188 3.179688 -0.960938 L 2.164062 -1.273438 C 1.480469 0.269531 1.652344 1.777344 2.945312 3.050781 Z M 2.945312 3.050781 "/></g></g></g><g fill="#000000" fill-opacity="1"><g transform="translate(246.946674, 143.462951)"><g><path d="M 12.175781 1.554688 L 13.023438 1.003906 L 9.488281 -4.4375 L 0.785156 1.210938 L 4.351562 6.699219 L 5.195312 6.152344 L 2.222656 1.574219 L 5.378906 -0.476562 L 8.070312 3.667969 L 8.914062 3.121094 L 6.222656 -1.023438 L 9.234375 -2.980469 Z M 12.175781 1.554688 "/></g></g></g><g fill="#000000" fill-opacity="1"><g transform="translate(255.040951, 157.438297)"><g><path d="M 1.390625 4.007812 C 2.121094 5.953125 3.855469 6.648438 5.28125 6.113281 C 5.925781 5.871094 6.375 5.40625 6.667969 4.828125 C 7.050781 4.074219 7.109375 3.0625 6.976562 1.921875 C 6.800781 0.320312 7.054688 -0.46875 7.9375 -0.800781 C 8.953125 -1.179688 9.949219 -0.453125 10.339844 0.589844 C 10.824219 1.878906 10.308594 2.769531 9.621094 3.394531 L 10.433594 4.078125 C 11.421875 3.210938 11.910156 1.871094 11.304688 0.257812 C 10.699219 -1.355469 9.167969 -2.421875 7.503906 -1.796875 C 6.152344 -1.289062 5.636719 -0.0625 5.902344 2.113281 C 6.09375 3.683594 5.832031 4.714844 4.816406 5.097656 C 3.796875 5.480469 2.773438 4.789062 2.34375 3.648438 C 1.847656 2.320312 2.332031 1.347656 3.289062 0.464844 L 2.496094 -0.246094 C 1.230469 0.867188 0.753906 2.308594 1.390625 4.007812 Z M 1.390625 4.007812 "/></g></g></g><g fill="#000000" fill-opacity="1"><g transform="translate(117.35923, 234.818367)"><g><path d="M 9.0625 -5.25 L 0.890625 1.136719 L 2.789062 3.570312 C 4.660156 5.960938 7.832031 6.574219 10.261719 4.671875 C 12.570312 2.871094 12.953125 -0.273438 10.964844 -2.820312 Z M 2.363281 1.367188 L 8.925781 -3.765625 L 10.125 -2.234375 C 11.792969 -0.101562 11.425781 2.335938 9.546875 3.804688 C 7.636719 5.296875 5.183594 4.976562 3.570312 2.910156 Z M 2.363281 1.367188 "/></g></g></g><g fill="#000000" fill-opacity="1"><g transform="translate(130.842999, 250.066087)"><g><path d="M 12.050781 -2.351562 L 12.679688 -3.136719 L 7.609375 -7.195312 L 1.128906 0.902344 L 6.234375 4.992188 L 6.867188 4.207031 L 2.605469 0.796875 L 4.957031 -2.140625 L 8.8125 0.945312 L 9.441406 0.160156 L 5.585938 -2.925781 L 7.828125 -5.730469 Z M 12.050781 -2.351562 "/></g></g></g><g fill="#000000" fill-opacity="1"><g transform="translate(145.847719, 260.765771)"><g><path d="M 4.753906 -9.226562 L 4.039062 1.933594 L 5.136719 2.460938 L 13.382812 -5.09375 L 12.316406 -5.605469 L 5.121094 1.085938 L 5.839844 -8.703125 Z M 4.753906 -9.226562 "/></g></g></g><g fill="#000000" fill-opacity="1"><g transform="translate(164.180994, 268.235563)"><g><path d="M 9.773438 -7.429688 L 9.988281 -8.414062 L 3.652344 -9.816406 L 1.410156 0.3125 L 7.800781 1.726562 L 8.019531 0.742188 L 2.6875 -0.4375 L 3.5 -4.109375 L 8.324219 -3.042969 L 8.542969 -4.027344 L 3.71875 -5.09375 L 4.492188 -8.597656 Z M 9.773438 -7.429688 "/></g></g></g><g fill="#000000" fill-opacity="1"><g transform="translate(182.288895, 271.141453)"><g><path d="M 2.535156 -1.007812 L 2.578125 -10.363281 L 1.492188 -10.367188 L 1.445312 0.0078125 L 7.445312 0.0351562 L 7.449219 -0.984375 Z M 2.535156 -1.007812 "/></g></g></g><g fill="#000000" fill-opacity="1"><g transform="translate(199.659514, 270.337364)"><g><path d="M 9.675781 -7.601562 C 9.007812 -10.480469 6.316406 -12.222656 3.425781 -11.550781 C 0.496094 -10.875 -1.140625 -8.085938 -0.46875 -5.183594 C 0.199219 -2.304688 2.890625 -0.5625 5.78125 -1.230469 C 8.710938 -1.910156 10.347656 -4.699219 9.675781 -7.601562 Z M 8.59375 -7.285156 C 9.117188 -5.023438 7.910156 -2.773438 5.589844 -2.234375 C 3.238281 -1.691406 1.144531 -3.214844 0.613281 -5.5 C 0.0898438 -7.757812 1.296875 -10.011719 3.617188 -10.550781 C 5.96875 -11.09375 8.066406 -9.554688 8.59375 -7.285156 Z M 8.59375 -7.285156 "/></g></g></g><g fill="#000000" fill-opacity="1"><g transform="translate(220.295136, 264.179109)"><g><path d="M 1.289062 -0.652344 L 2.257812 -1.144531 L 0.425781 -4.761719 L 2.386719 -5.753906 C 4.632812 -6.890625 5.152344 -8.773438 4.355469 -10.34375 C 3.625 -11.785156 1.957031 -12.617188 -0.300781 -11.476562 L -3.398438 -9.90625 Z M -0.0273438 -5.65625 L -1.96875 -9.488281 L 0.078125 -10.523438 C 1.894531 -11.445312 2.917969 -10.714844 3.378906 -9.804688 C 3.851562 -8.871094 3.671875 -7.53125 1.96875 -6.667969 Z M -0.0273438 -5.65625 "/></g></g></g><g fill="#000000" fill-opacity="1"><g transform="translate(236.384299, 254.825047)"><g><path d="M 0.15625 -12.277344 L -0.484375 -13.050781 L -5.492188 -8.917969 L 1.113281 -0.917969 L 6.160156 -5.085938 L 5.519531 -5.863281 L 1.308594 -2.386719 L -1.085938 -5.289062 L 2.726562 -8.433594 L 2.085938 -9.210938 L -1.726562 -6.066406 L -4.011719 -8.835938 Z M 0.15625 -12.277344 "/></g></g></g><g fill="#000000" fill-opacity="1"><g transform="translate(249.895532, 242.327162)"><g><path d="M -1.785156 -4.566406 L -0.492188 -6.246094 L 4.703125 -6.109375 L 5.511719 -7.160156 L 0.0820312 -7.292969 C 0.867188 -8.644531 0.871094 -10.277344 -0.535156 -11.363281 C -1.816406 -12.347656 -3.605469 -12.320312 -5.148438 -10.316406 L -7.339844 -7.472656 L 0.878906 -1.144531 L 1.542969 -2.003906 Z M -2.570312 -5.171875 L -5.867188 -7.710938 L -4.382812 -9.640625 C -3.175781 -11.207031 -1.980469 -11.089844 -1.171875 -10.464844 C -0.34375 -9.828125 0.046875 -8.574219 -1.101562 -7.082031 Z M -2.570312 -5.171875 "/></g></g></g><g fill="#000000" fill-opacity="1"><g transform="translate(195.882643, 206.464903)"><g><path d="M 45.21875 -41 L 45.21875 0 L 39.953125 0 L 39.953125 -25.71875 L 25.328125 -5 L 25.21875 -5 L 10.875 -25 L 10.875 0 L 5.71875 0 L 5.71875 -41 L 5.765625 -41 L 25.328125 -13.296875 L 45.171875 -41 Z M 45.21875 -41 "/></g></g></g><g fill="#000000" fill-opacity="1"><g transform="translate(135.828649, 206.464903)"><g><path d="M 27.59375 0 L 18.25 -14.671875 C 17.957031 -14.640625 17.515625 -14.625 16.921875 -14.625 L 11.046875 -14.625 L 11.046875 0 L 5.71875 0 L 5.71875 -39.734375 L 16.328125 -39.734375 C 19.035156 -39.734375 21.453125 -39.253906 23.578125 -38.296875 C 25.703125 -37.347656 27.367188 -35.945312 28.578125 -34.09375 C 29.785156 -32.25 30.390625 -30.023438 30.390625 -27.421875 C 30.390625 -24.960938 29.847656 -22.707031 28.765625 -20.65625 C 27.679688 -18.601562 26.023438 -17.046875 23.796875 -15.984375 L 33.796875 0 Z M 16.8125 -19.78125 C 19.675781 -19.78125 21.738281 -20.53125 23 -22.03125 C 24.257812 -23.539062 24.890625 -25.265625 24.890625 -27.203125 C 24.890625 -28.367188 24.625 -29.519531 24.09375 -30.65625 C 23.5625 -31.800781 22.71875 -32.75 21.5625 -33.5 C 20.414062 -34.25 18.960938 -34.625 17.203125 -34.625 L 11.046875 -34.625 L 11.046875 -19.78125 Z M 16.8125 -19.78125 "/></g></g></g><path stroke-linecap="butt" transform="matrix(0.000000000000000092, -1.498214, 1.297297, 0.000000000000000079, 187.278316, 231.800243)" fill="none" stroke-linejoin="miter" d="M -0.000359142 -0.000749598 L 59.075173 -0.000749598 " stroke="#000000" stroke-width="1" stroke-opacity="1" stroke-miterlimit="4"/></svg>