<svg xmlns="http://www.w3.org/2000/svg" xmlns:xlink="http://www.w3.org/1999/xlink" width="500" zoomAndPan="magnify" viewBox="0 0 375 374.999991" height="500" preserveAspectRatio="xMidYMid meet" version="1.0"><defs><g/><clipPath id="37f6ee7d39"><path d="M 256.140625 118.289062 L 274.140625 118.289062 L 274.140625 136.289062 L 256.140625 136.289062 Z M 256.140625 118.289062 " clip-rule="nonzero"/></clipPath></defs><g clip-path="url(#37f6ee7d39)"><path fill="#004aad" d="M 265.140625 118.289062 C 264.265625 125.703125 263.554688 126.414062 256.140625 127.289062 C 256.15625 127.292969 256.171875 127.292969 256.1875 127.296875 C 263.554688 128.171875 264.265625 128.894531 265.140625 136.289062 C 266.019531 128.878906 266.730469 128.167969 274.140625 127.289062 C 266.730469 126.414062 266.019531 125.703125 265.140625 118.289062 Z M 265.140625 118.289062 " fill-opacity="1" fill-rule="nonzero"/></g><g fill="#004aad" fill-opacity="1"><g transform="translate(101.904292, 216.515273)"><g><path d="M 9.128906 -8.96875 C 9.128906 -24.621094 9.210938 -40.273438 9.210938 -55.925781 L 21.035156 -55.925781 C 30.246094 -55.925781 37.175781 -53.316406 37.175781 -42.636719 C 37.175781 -31.714844 29.347656 -30.898438 21.605469 -26.820312 C 18.015625 -24.945312 14.917969 -22.582031 14.675781 -19.078125 C 15.082031 -20.300781 15.898438 -21.523438 16.792969 -22.5 C 19.078125 -24.785156 22.175781 -25.191406 23.96875 -22.09375 L 34.730469 -3.097656 C 35.871094 -1.058594 36.847656 0 39.375 0 L 46.875 0 C 45.328125 -1.710938 42.066406 -7.09375 40.519531 -9.863281 L 32.691406 -23.640625 C 31.46875 -25.84375 30.734375 -26.089844 28.289062 -26.089844 L 23.804688 -26.089844 C 26.660156 -26.984375 29.757812 -27.636719 32.445312 -28.371094 C 39.785156 -30.328125 46.0625 -33.507812 46.0625 -42.636719 C 46.0625 -52.421875 37.992188 -57.066406 28.941406 -57.066406 L 0 -57.066406 C 0 -57.066406 0.816406 -52.910156 0.816406 -48.101562 L 0.816406 -8.96875 C 0.816406 -4.15625 0 0 0 0 L 9.945312 0 C 9.945312 0 9.128906 -4.15625 9.128906 -8.96875 Z M 9.128906 -8.96875 "/></g></g></g><g fill="#004aad" fill-opacity="1"><g transform="translate(156.03062, 216.515273)"><g><path d="M 9.945312 -57.066406 L 0 -57.066406 C 0 -57.066406 0.816406 -52.910156 0.816406 -48.101562 L 0.816406 -17.855469 C 0.816406 -12.230469 0.816406 -7.253906 6.195312 -3.34375 C 9.375 -0.976562 13.777344 0 18.425781 0 C 22.175781 0 29.023438 -1.222656 36.277344 -4.972656 C 36.035156 -2.039062 35.625 0 35.625 0 L 45.652344 0 C 45.652344 0 44.839844 -4.15625 44.839844 -8.96875 L 44.839844 -48.101562 C 44.839844 -52.910156 45.652344 -57.066406 45.652344 -57.066406 L 35.625 -57.066406 C 35.625 -57.066406 36.441406 -52.910156 36.441406 -48.101562 L 36.441406 -8.96875 C 36.441406 -8.722656 36.441406 -8.480469 36.441406 -8.234375 C 31.140625 -4.078125 23.886719 -1.058594 18.507812 -1.058594 C 7.988281 -1.058594 9.128906 -10.273438 9.128906 -17.855469 L 9.128906 -48.101562 C 9.128906 -52.910156 9.945312 -57.066406 9.945312 -57.066406 Z M 9.945312 -57.066406 "/></g></g></g><g fill="#004aad" fill-opacity="1"><g transform="translate(208.852699, 216.515273)"><g><path d="M 9.210938 -55.925781 L 21.035156 -55.925781 C 30.246094 -55.925781 37.664062 -53.316406 37.664062 -42.636719 C 37.664062 -31.714844 29.347656 -30.898438 21.605469 -26.820312 C 18.015625 -24.945312 14.917969 -22.582031 14.675781 -19.078125 C 16.386719 -23.398438 22.09375 -25.597656 26.820312 -25.4375 C 35.382812 -25.191406 40.519531 -16.46875 35.625 -9.050781 C 31.632812 -3.015625 21.765625 -1.140625 15.082031 -1.140625 L 9.128906 -1.140625 Z M 28.941406 0 C 37.5 0 46.304688 -5.054688 46.226562 -14.429688 C 46.144531 -23.480469 38.234375 -28.125 30 -27.71875 C 38.316406 -29.757812 46.0625 -32.445312 46.0625 -42.636719 C 46.0625 -52.421875 37.992188 -57.066406 28.941406 -57.066406 L 0 -57.066406 C 0 -57.066406 0.816406 -52.910156 0.816406 -48.101562 L 0.816406 -8.96875 C 0.816406 -4.15625 0 0 0 0 Z M 28.941406 0 "/></g></g></g><g fill="#004aad" fill-opacity="1"><g transform="translate(262.326897, 216.515273)"><g><path d="M 9.945312 -57.066406 L 0 -57.066406 C 0 -57.066406 0.816406 -52.910156 0.816406 -48.101562 L 0.816406 -8.96875 C 0.816406 -4.15625 0 0 0 0 L 9.945312 0 C 9.945312 0 9.128906 -4.15625 9.128906 -8.96875 L 9.128906 -48.101562 C 9.128906 -52.910156 9.945312 -57.066406 9.945312 -57.066406 Z M 9.945312 -57.066406 "/></g></g></g></svg>